<svg xmlns="http://www.w3.org/2000/svg" xmlns:xlink="http://www.w3.org/1999/xlink" version="1.1" viewBox="0 0 2500 500" style="background: #111111"><g transform="translate(25,100)"><rect width="450" height="300" rx="20" ry="20" x="0" y="0" fill="#111111" stroke-width="5" stroke="#0773af" stroke-dasharray=""/><text x="225" y="95" text-anchor="middle" dominant-baseline="hanging" fill="#0773af" font-size="30px" font-family="Tahoma, Verdana, Helvetica, Arial"><tspan x="225" dy="40px">Boundary</tspan></text></g><g transform="translate(525,100)"><rect width="450" height="300" rx="20" ry="20" x="0" y="0" fill="#111111" stroke-width="7" stroke="#0773af" stroke-dasharray=""/><text x="225" y="95" text-anchor="middle" dominant-baseline="hanging" fill="#0773af" font-size="30px" font-family="Tahoma, Verdana, Helvetica, Arial"><tspan x="225" dy="40px">Element</tspan></text></g><g transform="translate(1100,25)"><rect width="300" height="450" rx="20" ry="20" x="0" y="0" fill="#0773af" stroke-width="5" stroke="#0773af" stroke-dasharray=""/><rect width="280" height="370" rx="5" ry="5" x="10" y="40" fill="#111111" stroke-width="0"/><ellipse cx="150" cy="430" rx="10" ry="10" fill="#111111" stroke-width="0"/><line x1="125" y1="20" x2="175" y2="20" stroke-width="5" stroke="#111111"/><text x="150" y="170" text-anchor="middle" dominant-baseline="hanging" fill="#0773af" font-size="30px" font-family="Tahoma, Verdana, Helvetica, Arial"><tspan x="150" dy="40px">MobileDevice</tspan></text></g><g transform="translate(1525,100)"><rect width="450" height="300" rx="10" ry="10" x="0" y="0" fill="#0773af" stroke-width="0" stroke="#0773af" stroke-dasharray=""/><rect width="436" height="253" rx="10" ry="10" x="7" y="40" fill="#111111" stroke-width="0"/><rect width="340" height="20" rx="10" ry="10" x="100" y="10" fill="#111111" stroke-width="0"/><ellipse cx="20" cy="20" rx="10" ry="10" fill="#111111" stroke-width="0"/><ellipse cx="50" cy="20" rx="10" ry="10" fill="#111111" stroke-width="0"/><ellipse cx="80" cy="20" rx="10" ry="10" fill="#111111" stroke-width="0"/><text x="225" y="115" text-anchor="middle" dominant-baseline="hanging" fill="#0773af" font-size="30px" font-family="Tahoma, Verdana, Helvetica, Arial"><tspan x="225" dy="40px">WebBrowser</tspan></text></g><g transform="translate(2025,170)"><path d="M414,0 L414,48 L450,30 L 414,12" style="fill:#cccccc" /><path d="M0,30 L414,30" style="stroke:#cccccc; stroke-width: 4; fill: none; stroke-dasharray: 16 16;" /><text x="225" y="55" text-anchor="middle" dominant-baseline="hanging" fill="#cccccc" font-size="30px" font-family="Tahoma, Verdana, Helvetica, Arial"><tspan x="225" dy="40px">Relationship</tspan></text></g></svg>